G04 Layer: TopSilkscreenLayer*
G04 EasyEDA v6.5.51, 2026-09-25 11:00:27*
G04 aefef3df197f448ab4cbd56205182360,c088ded6e3c04853ab2496fc10f77cd9,10*
G04 Gerber Generator version 0.2*
G04 Scale: 100 percent, Rotated: No, Reflected: No *
G04 Dimensions in millimeters *
G04 leading zeros omitted , absolute positions ,4 integer and 5 decimal *
%FSLAX45Y45*%
%MOMM*%

%ADD10C,0.1524*%
%ADD11C,0.2540*%
%ADD12C,0.1520*%
%ADD13C,0.1000*%
%ADD14C,0.5000*%
%ADD15C,0.3000*%
%ADD16C,0.0174*%

%LPD*%
D10*
X166880Y838723D02*
G01*
X161546Y849137D01*
X151132Y859551D01*
X140972Y864631D01*
X120144Y864631D01*
X109730Y859551D01*
X99316Y849137D01*
X93982Y838723D01*
X88902Y822975D01*
X88902Y797067D01*
X93982Y781573D01*
X99316Y771159D01*
X109730Y760745D01*
X120144Y755665D01*
X140972Y755665D01*
X151132Y760745D01*
X161546Y771159D01*
X166880Y781573D01*
X201170Y843803D02*
G01*
X211584Y849137D01*
X227078Y864631D01*
X227078Y755665D01*
X217680Y1080023D02*
G01*
X212346Y1090437D01*
X201932Y1100851D01*
X191772Y1105931D01*
X170944Y1105931D01*
X160530Y1100851D01*
X150116Y1090437D01*
X144782Y1080023D01*
X139702Y1064275D01*
X139702Y1038367D01*
X144782Y1022873D01*
X150116Y1012459D01*
X160530Y1002045D01*
X170944Y996965D01*
X191772Y996965D01*
X201932Y1002045D01*
X212346Y1012459D01*
X217680Y1022873D01*
X257050Y1080023D02*
G01*
X257050Y1085103D01*
X262384Y1095517D01*
X267464Y1100851D01*
X277878Y1105931D01*
X298706Y1105931D01*
X309120Y1100851D01*
X314200Y1095517D01*
X319534Y1085103D01*
X319534Y1074689D01*
X314200Y1064275D01*
X303786Y1048781D01*
X251970Y996965D01*
X324614Y996965D01*
X712980Y1842023D02*
G01*
X707646Y1852437D01*
X697232Y1862851D01*
X687072Y1867931D01*
X666244Y1867931D01*
X655830Y1862851D01*
X645416Y1852437D01*
X640082Y1842023D01*
X635002Y1826275D01*
X635002Y1800367D01*
X640082Y1784873D01*
X645416Y1774459D01*
X655830Y1764045D01*
X666244Y1758965D01*
X687072Y1758965D01*
X697232Y1764045D01*
X707646Y1774459D01*
X712980Y1784873D01*
X757684Y1867931D02*
G01*
X814834Y1867931D01*
X783592Y1826275D01*
X799086Y1826275D01*
X809500Y1821195D01*
X814834Y1816115D01*
X819914Y1800367D01*
X819914Y1789953D01*
X814834Y1774459D01*
X804420Y1764045D01*
X788672Y1758965D01*
X773178Y1758965D01*
X757684Y1764045D01*
X752350Y1769125D01*
X747270Y1779539D01*
X2743989Y5453928D02*
G01*
X2738655Y5464342D01*
X2728241Y5474756D01*
X2718081Y5479836D01*
X2697253Y5479836D01*
X2686839Y5474756D01*
X2676425Y5464342D01*
X2671091Y5453928D01*
X2666011Y5438180D01*
X2666011Y5412272D01*
X2671091Y5396778D01*
X2676425Y5386364D01*
X2686839Y5375950D01*
X2697253Y5370870D01*
X2718081Y5370870D01*
X2728241Y5375950D01*
X2738655Y5386364D01*
X2743989Y5396778D01*
X2850923Y5479836D02*
G01*
X2799107Y5370870D01*
X2778279Y5479836D02*
G01*
X2850923Y5479836D01*
X1168199Y633034D02*
G01*
X1162865Y643448D01*
X1152451Y653862D01*
X1142291Y658942D01*
X1121463Y658942D01*
X1111049Y653862D01*
X1100635Y643448D01*
X1095301Y633034D01*
X1090221Y617286D01*
X1090221Y591378D01*
X1095301Y575884D01*
X1100635Y565470D01*
X1111049Y555056D01*
X1121463Y549976D01*
X1142291Y549976D01*
X1152451Y555056D01*
X1162865Y565470D01*
X1168199Y575884D01*
X1254305Y658942D02*
G01*
X1202489Y586298D01*
X1280467Y586298D01*
X1254305Y658942D02*
G01*
X1254305Y549976D01*
X1167208Y498439D02*
G01*
X1161874Y508853D01*
X1151460Y519267D01*
X1141300Y524347D01*
X1120472Y524347D01*
X1110058Y519267D01*
X1099644Y508853D01*
X1094310Y498439D01*
X1089230Y482691D01*
X1089230Y456783D01*
X1094310Y441289D01*
X1099644Y430875D01*
X1110058Y420461D01*
X1120472Y415381D01*
X1141300Y415381D01*
X1151460Y420461D01*
X1161874Y430875D01*
X1167208Y441289D01*
X1263728Y524347D02*
G01*
X1211912Y524347D01*
X1206578Y477611D01*
X1211912Y482691D01*
X1227406Y488025D01*
X1242900Y488025D01*
X1258648Y482691D01*
X1269062Y472531D01*
X1274142Y456783D01*
X1274142Y446369D01*
X1269062Y430875D01*
X1258648Y420461D01*
X1242900Y415381D01*
X1227406Y415381D01*
X1211912Y420461D01*
X1206578Y425541D01*
X1201498Y435955D01*
X2731289Y3053628D02*
G01*
X2725955Y3064042D01*
X2715541Y3074456D01*
X2705381Y3079536D01*
X2684553Y3079536D01*
X2674139Y3074456D01*
X2663725Y3064042D01*
X2658391Y3053628D01*
X2653311Y3037880D01*
X2653311Y3011972D01*
X2658391Y2996478D01*
X2663725Y2986064D01*
X2674139Y2975650D01*
X2684553Y2970570D01*
X2705381Y2970570D01*
X2715541Y2975650D01*
X2725955Y2986064D01*
X2731289Y2996478D01*
X2827809Y3064042D02*
G01*
X2822729Y3074456D01*
X2806981Y3079536D01*
X2796821Y3079536D01*
X2781073Y3074456D01*
X2770659Y3058708D01*
X2765579Y3032800D01*
X2765579Y3006892D01*
X2770659Y2986064D01*
X2781073Y2975650D01*
X2796821Y2970570D01*
X2801901Y2970570D01*
X2817395Y2975650D01*
X2827809Y2986064D01*
X2833143Y3001558D01*
X2833143Y3006892D01*
X2827809Y3022386D01*
X2817395Y3032800D01*
X2801901Y3037880D01*
X2796821Y3037880D01*
X2781073Y3032800D01*
X2770659Y3022386D01*
X2765579Y3006892D01*
X975921Y1751142D02*
G01*
X975921Y1642176D01*
X975921Y1642176D02*
G01*
X1038151Y1642176D01*
X1072441Y1730314D02*
G01*
X1082855Y1735648D01*
X1098603Y1751142D01*
X1098603Y1642176D01*
X1984961Y99253D02*
G01*
X2093927Y99253D01*
X1984961Y99253D02*
G01*
X2093927Y171897D01*
X1984961Y171897D02*
G01*
X2093927Y171897D01*
X1984961Y242763D02*
G01*
X2093927Y242763D01*
X1984961Y206187D02*
G01*
X1984961Y279085D01*
X2010869Y391353D02*
G01*
X2000455Y386019D01*
X1990041Y375605D01*
X1984961Y365191D01*
X1984961Y344363D01*
X1990041Y334203D01*
X2000455Y323789D01*
X2010869Y318455D01*
X2026617Y313375D01*
X2052525Y313375D01*
X2068019Y318455D01*
X2078433Y323789D01*
X2088847Y334203D01*
X2093927Y344363D01*
X2093927Y365191D01*
X2088847Y375605D01*
X2078433Y386019D01*
X2068019Y391353D01*
X2130503Y425643D02*
G01*
X2130503Y519115D01*
X1984961Y553405D02*
G01*
X2093927Y553405D01*
X1984961Y587695D02*
G01*
X2093927Y587695D01*
X1984961Y587695D02*
G01*
X2093927Y660339D01*
X1984961Y660339D02*
G01*
X2093927Y660339D01*
X2969795Y114315D02*
G01*
X3078761Y114315D01*
X2969795Y114315D02*
G01*
X3078761Y186959D01*
X2969795Y186959D02*
G01*
X3078761Y186959D01*
X2969795Y257825D02*
G01*
X3078761Y257825D01*
X2969795Y221249D02*
G01*
X2969795Y294147D01*
X2995703Y406415D02*
G01*
X2985289Y401081D01*
X2974875Y390667D01*
X2969795Y380253D01*
X2969795Y359425D01*
X2974875Y349265D01*
X2985289Y338851D01*
X2995703Y333517D01*
X3011451Y328437D01*
X3037359Y328437D01*
X3052853Y333517D01*
X3063267Y338851D01*
X3073681Y349265D01*
X3078761Y359425D01*
X3078761Y380253D01*
X3073681Y390667D01*
X3063267Y401081D01*
X3052853Y406415D01*
X3115337Y440705D02*
G01*
X3115337Y534177D01*
X2969795Y599455D02*
G01*
X2974875Y589295D01*
X2985289Y578881D01*
X2995703Y573547D01*
X3011451Y568467D01*
X3037359Y568467D01*
X3052853Y573547D01*
X3063267Y578881D01*
X3073681Y589295D01*
X3078761Y599455D01*
X3078761Y620283D01*
X3073681Y630697D01*
X3063267Y641111D01*
X3052853Y646445D01*
X3037359Y651525D01*
X3011451Y651525D01*
X2995703Y646445D01*
X2985289Y641111D01*
X2974875Y630697D01*
X2969795Y620283D01*
X2969795Y599455D01*
X2969795Y685815D02*
G01*
X3047773Y685815D01*
X3063267Y690895D01*
X3073681Y701309D01*
X3078761Y717057D01*
X3078761Y727471D01*
X3073681Y742965D01*
X3063267Y753379D01*
X3047773Y758459D01*
X2969795Y758459D01*
X2969795Y829325D02*
G01*
X3078761Y829325D01*
X2969795Y792749D02*
G01*
X2969795Y865647D01*
X959233Y114442D02*
G01*
X1068199Y114442D01*
X959233Y114442D02*
G01*
X959233Y161178D01*
X964313Y176672D01*
X969647Y182006D01*
X980061Y187086D01*
X995555Y187086D01*
X1005969Y182006D01*
X1011049Y176672D01*
X1016383Y161178D01*
X1016383Y114442D01*
X959233Y221376D02*
G01*
X1068199Y247538D01*
X959233Y273446D02*
G01*
X1068199Y247538D01*
X959233Y273446D02*
G01*
X1068199Y299354D01*
X959233Y325262D02*
G01*
X1068199Y299354D01*
X959233Y359552D02*
G01*
X1068199Y359552D01*
X959233Y359552D02*
G01*
X959233Y406542D01*
X964313Y422036D01*
X969647Y427116D01*
X980061Y432450D01*
X990475Y432450D01*
X1000889Y427116D01*
X1005969Y422036D01*
X1011049Y406542D01*
X1011049Y359552D01*
X1011049Y396128D02*
G01*
X1068199Y432450D01*
X2842795Y1033820D02*
G01*
X2951761Y1033820D01*
X2842795Y1033820D02*
G01*
X2842795Y1080556D01*
X2847875Y1096050D01*
X2853209Y1101384D01*
X2863623Y1106464D01*
X2874037Y1106464D01*
X2884451Y1101384D01*
X2889531Y1096050D01*
X2894611Y1080556D01*
X2894611Y1033820D01*
X2894611Y1070142D02*
G01*
X2951761Y1106464D01*
X2863623Y1140754D02*
G01*
X2858289Y1151168D01*
X2842795Y1166916D01*
X2951761Y1166916D01*
X2855495Y1275120D02*
G01*
X2964461Y1275120D01*
X2855495Y1275120D02*
G01*
X2855495Y1321856D01*
X2860575Y1337350D01*
X2865909Y1342684D01*
X2876323Y1347764D01*
X2886737Y1347764D01*
X2897151Y1342684D01*
X2902231Y1337350D01*
X2907311Y1321856D01*
X2907311Y1275120D01*
X2907311Y1311442D02*
G01*
X2964461Y1347764D01*
X2881403Y1387388D02*
G01*
X2876323Y1387388D01*
X2865909Y1392468D01*
X2860575Y1397802D01*
X2855495Y1408216D01*
X2855495Y1428790D01*
X2860575Y1439204D01*
X2865909Y1444538D01*
X2876323Y1449618D01*
X2886737Y1449618D01*
X2897151Y1444538D01*
X2912645Y1434124D01*
X2964461Y1382054D01*
X2964461Y1454952D01*
X2867205Y2042226D02*
G01*
X2976171Y2042226D01*
X2867205Y2042226D02*
G01*
X2867205Y2088962D01*
X2872285Y2104456D01*
X2877619Y2109790D01*
X2888033Y2114870D01*
X2898447Y2114870D01*
X2908861Y2109790D01*
X2913941Y2104456D01*
X2919021Y2088962D01*
X2919021Y2042226D01*
X2919021Y2078548D02*
G01*
X2976171Y2114870D01*
X2867205Y2159574D02*
G01*
X2867205Y2216724D01*
X2908861Y2185736D01*
X2908861Y2201230D01*
X2913941Y2211644D01*
X2919021Y2216724D01*
X2934769Y2222058D01*
X2945183Y2222058D01*
X2960677Y2216724D01*
X2971091Y2206310D01*
X2976171Y2190816D01*
X2976171Y2175322D01*
X2971091Y2159574D01*
X2966011Y2154494D01*
X2955597Y2149160D01*
X2868195Y2316520D02*
G01*
X2977161Y2316520D01*
X2868195Y2316520D02*
G01*
X2868195Y2363256D01*
X2873275Y2378750D01*
X2878609Y2384084D01*
X2889023Y2389164D01*
X2899437Y2389164D01*
X2909851Y2384084D01*
X2914931Y2378750D01*
X2920011Y2363256D01*
X2920011Y2316520D01*
X2920011Y2352842D02*
G01*
X2977161Y2389164D01*
X2868195Y2475524D02*
G01*
X2940839Y2423454D01*
X2940839Y2501432D01*
X2868195Y2475524D02*
G01*
X2977161Y2475524D01*
X2208811Y3320836D02*
G01*
X2208811Y3211870D01*
X2208811Y3320836D02*
G01*
X2255547Y3320836D01*
X2271041Y3315756D01*
X2276375Y3310422D01*
X2281455Y3300008D01*
X2281455Y3289594D01*
X2276375Y3279180D01*
X2271041Y3274100D01*
X2255547Y3269020D01*
X2208811Y3269020D01*
X2245133Y3269020D02*
G01*
X2281455Y3211870D01*
X2378229Y3305342D02*
G01*
X2372895Y3315756D01*
X2357401Y3320836D01*
X2346987Y3320836D01*
X2331493Y3315756D01*
X2321079Y3300008D01*
X2315745Y3274100D01*
X2315745Y3248192D01*
X2321079Y3227364D01*
X2331493Y3216950D01*
X2346987Y3211870D01*
X2352321Y3211870D01*
X2367815Y3216950D01*
X2378229Y3227364D01*
X2383309Y3242858D01*
X2383309Y3248192D01*
X2378229Y3263686D01*
X2367815Y3274100D01*
X2352321Y3279180D01*
X2346987Y3279180D01*
X2331493Y3274100D01*
X2321079Y3263686D01*
X2315745Y3248192D01*
X2183411Y2990636D02*
G01*
X2183411Y2881670D01*
X2183411Y2990636D02*
G01*
X2230147Y2990636D01*
X2245641Y2985556D01*
X2250975Y2980222D01*
X2256055Y2969808D01*
X2256055Y2959394D01*
X2250975Y2948980D01*
X2245641Y2943900D01*
X2230147Y2938820D01*
X2183411Y2938820D01*
X2219733Y2938820D02*
G01*
X2256055Y2881670D01*
X2363243Y2990636D02*
G01*
X2311173Y2881670D01*
X2290345Y2990636D02*
G01*
X2363243Y2990636D01*
X190502Y1448831D02*
G01*
X190502Y1370853D01*
X195582Y1355359D01*
X205996Y1344945D01*
X221744Y1339865D01*
X232158Y1339865D01*
X247652Y1344945D01*
X258066Y1355359D01*
X263146Y1370853D01*
X263146Y1448831D01*
X297436Y1428003D02*
G01*
X307850Y1433337D01*
X323598Y1448831D01*
X323598Y1339865D01*
X423217Y2128027D02*
G01*
X423217Y2050049D01*
X428297Y2034555D01*
X438711Y2024141D01*
X454459Y2019061D01*
X464873Y2019061D01*
X480367Y2024141D01*
X490781Y2034555D01*
X495861Y2050049D01*
X495861Y2128027D01*
X535485Y2102119D02*
G01*
X535485Y2107199D01*
X540565Y2117613D01*
X545899Y2122947D01*
X556313Y2128027D01*
X576887Y2128027D01*
X587301Y2122947D01*
X592635Y2117613D01*
X597715Y2107199D01*
X597715Y2096785D01*
X592635Y2086371D01*
X582221Y2070877D01*
X530151Y2019061D01*
X603049Y2019061D01*
X478716Y3628417D02*
G01*
X478716Y3550439D01*
X483796Y3534945D01*
X494210Y3524531D01*
X509958Y3519451D01*
X520372Y3519451D01*
X535866Y3524531D01*
X546280Y3534945D01*
X551360Y3550439D01*
X551360Y3628417D01*
X596064Y3628417D02*
G01*
X653214Y3628417D01*
X622226Y3586761D01*
X637720Y3586761D01*
X648134Y3581681D01*
X653214Y3576601D01*
X658548Y3560853D01*
X658548Y3550439D01*
X653214Y3534945D01*
X642800Y3524531D01*
X627306Y3519451D01*
X611812Y3519451D01*
X596064Y3524531D01*
X590984Y3529611D01*
X585650Y3540025D01*
X2120900Y788415D02*
G01*
X2120900Y710437D01*
X2125979Y694944D01*
X2136393Y684529D01*
X2152141Y679450D01*
X2162556Y679450D01*
X2178050Y684529D01*
X2188463Y694944D01*
X2193543Y710437D01*
X2193543Y788415D01*
X2279904Y788415D02*
G01*
X2227834Y715771D01*
X2305811Y715771D01*
X2279904Y788415D02*
G01*
X2279904Y679450D01*
X1358900Y788415D02*
G01*
X1358900Y710437D01*
X1363979Y694944D01*
X1374394Y684529D01*
X1390142Y679450D01*
X1400555Y679450D01*
X1416050Y684529D01*
X1426463Y694944D01*
X1431544Y710437D01*
X1431544Y788415D01*
X1528318Y788415D02*
G01*
X1476247Y788415D01*
X1471168Y741679D01*
X1476247Y746760D01*
X1491995Y752094D01*
X1507489Y752094D01*
X1522984Y746760D01*
X1533397Y736600D01*
X1538731Y720852D01*
X1538731Y710437D01*
X1533397Y694944D01*
X1522984Y684529D01*
X1507489Y679450D01*
X1491995Y679450D01*
X1476247Y684529D01*
X1471168Y689610D01*
X1465834Y700023D01*
X2298700Y1982215D02*
G01*
X2298700Y1904237D01*
X2303779Y1888744D01*
X2314193Y1878329D01*
X2329941Y1873250D01*
X2340356Y1873250D01*
X2355850Y1878329D01*
X2366263Y1888744D01*
X2371343Y1904237D01*
X2371343Y1982215D01*
X2468118Y1966721D02*
G01*
X2462784Y1977136D01*
X2447290Y1982215D01*
X2436875Y1982215D01*
X2421381Y1977136D01*
X2410968Y1961387D01*
X2405634Y1935479D01*
X2405634Y1909571D01*
X2410968Y1888744D01*
X2421381Y1878329D01*
X2436875Y1873250D01*
X2442209Y1873250D01*
X2457704Y1878329D01*
X2468118Y1888744D01*
X2473197Y1904237D01*
X2473197Y1909571D01*
X2468118Y1925065D01*
X2457704Y1935479D01*
X2442209Y1940560D01*
X2436875Y1940560D01*
X2421381Y1935479D01*
X2410968Y1925065D01*
X2405634Y1909571D01*
X1130300Y2160015D02*
G01*
X1130300Y2082037D01*
X1135379Y2066544D01*
X1145794Y2056129D01*
X1161542Y2051050D01*
X1171955Y2051050D01*
X1187450Y2056129D01*
X1197863Y2066544D01*
X1202944Y2082037D01*
X1202944Y2160015D01*
X1310131Y2160015D02*
G01*
X1258062Y2051050D01*
X1237234Y2160015D02*
G01*
X1310131Y2160015D01*
X1473200Y3112515D02*
G01*
X1473200Y3034537D01*
X1478279Y3019044D01*
X1488694Y3008629D01*
X1504442Y3003550D01*
X1514855Y3003550D01*
X1530350Y3008629D01*
X1540763Y3019044D01*
X1545844Y3034537D01*
X1545844Y3112515D01*
X1606295Y3112515D02*
G01*
X1590547Y3107436D01*
X1585468Y3097021D01*
X1585468Y3086607D01*
X1590547Y3076194D01*
X1600962Y3070860D01*
X1621789Y3065779D01*
X1637284Y3060700D01*
X1647697Y3050286D01*
X1653031Y3039871D01*
X1653031Y3024123D01*
X1647697Y3013710D01*
X1642618Y3008629D01*
X1626870Y3003550D01*
X1606295Y3003550D01*
X1590547Y3008629D01*
X1585468Y3013710D01*
X1580134Y3024123D01*
X1580134Y3039871D01*
X1585468Y3050286D01*
X1595881Y3060700D01*
X1611376Y3065779D01*
X1632204Y3070860D01*
X1642618Y3076194D01*
X1647697Y3086607D01*
X1647697Y3097021D01*
X1642618Y3107436D01*
X1626870Y3112515D01*
X1606295Y3112515D01*
X215900Y3074415D02*
G01*
X215900Y2996437D01*
X220979Y2980944D01*
X231394Y2970529D01*
X247142Y2965450D01*
X257555Y2965450D01*
X273050Y2970529D01*
X283463Y2980944D01*
X288544Y2996437D01*
X288544Y3074415D01*
X390397Y3038094D02*
G01*
X385318Y3022600D01*
X374904Y3012186D01*
X359410Y3006852D01*
X354076Y3006852D01*
X338581Y3012186D01*
X328168Y3022600D01*
X322834Y3038094D01*
X322834Y3043173D01*
X328168Y3058921D01*
X338581Y3069336D01*
X354076Y3074415D01*
X359410Y3074415D01*
X374904Y3069336D01*
X385318Y3058921D01*
X390397Y3038094D01*
X390397Y3012186D01*
X385318Y2986023D01*
X374904Y2970529D01*
X359410Y2965450D01*
X348995Y2965450D01*
X333247Y2970529D01*
X328168Y2980944D01*
X495274Y2617165D02*
G01*
X495274Y2508199D01*
X495274Y2617165D02*
G01*
X542010Y2617165D01*
X557758Y2612085D01*
X562838Y2606751D01*
X567918Y2596337D01*
X567918Y2586177D01*
X562838Y2575763D01*
X557758Y2570429D01*
X542010Y2565349D01*
X495274Y2565349D01*
X531596Y2565349D02*
G01*
X567918Y2508199D01*
X628370Y2617165D02*
G01*
X612622Y2612085D01*
X607542Y2601671D01*
X607542Y2591257D01*
X612622Y2580843D01*
X623036Y2575763D01*
X643864Y2570429D01*
X659358Y2565349D01*
X669772Y2554935D01*
X675106Y2544521D01*
X675106Y2529027D01*
X669772Y2518613D01*
X664692Y2513279D01*
X649198Y2508199D01*
X628370Y2508199D01*
X612622Y2513279D01*
X607542Y2518613D01*
X602208Y2529027D01*
X602208Y2544521D01*
X607542Y2554935D01*
X617956Y2565349D01*
X633450Y2570429D01*
X654278Y2575763D01*
X664692Y2580843D01*
X669772Y2591257D01*
X669772Y2601671D01*
X664692Y2612085D01*
X649198Y2617165D01*
X628370Y2617165D01*
X2095500Y1817115D02*
G01*
X2095500Y1708150D01*
X2095500Y1817115D02*
G01*
X2142236Y1817115D01*
X2157729Y1812036D01*
X2163063Y1806702D01*
X2168143Y1796287D01*
X2168143Y1785873D01*
X2163063Y1775460D01*
X2157729Y1770379D01*
X2142236Y1765300D01*
X2095500Y1765300D01*
X2131822Y1765300D02*
G01*
X2168143Y1708150D01*
X2264918Y1817115D02*
G01*
X2212847Y1817115D01*
X2207768Y1770379D01*
X2212847Y1775460D01*
X2228595Y1780794D01*
X2244090Y1780794D01*
X2259584Y1775460D01*
X2269997Y1765300D01*
X2275331Y1749552D01*
X2275331Y1739137D01*
X2269997Y1723644D01*
X2259584Y1713229D01*
X2244090Y1708150D01*
X2228595Y1708150D01*
X2212847Y1713229D01*
X2207768Y1718310D01*
X2202434Y1728723D01*
X301482Y722454D02*
G01*
X442483Y722454D01*
X442483Y903175D02*
G01*
X301482Y903175D01*
X286242Y887935D02*
G01*
X286242Y737694D01*
X663722Y722454D02*
G01*
X522721Y722454D01*
X522721Y903175D02*
G01*
X663722Y903175D01*
X678962Y887935D02*
G01*
X678962Y737694D01*
D11*
X548721Y1125072D02*
G01*
X628718Y1125072D01*
X492676Y1125118D02*
G01*
X412678Y1125118D01*
X548721Y983104D02*
G01*
X628718Y983104D01*
X492676Y983152D02*
G01*
X412678Y983152D01*
X659693Y1094089D02*
G01*
X659693Y1014084D01*
X381701Y1014138D02*
G01*
X381701Y1094140D01*
X751921Y1709272D02*
G01*
X831918Y1709272D01*
X695876Y1709318D02*
G01*
X615878Y1709318D01*
X751921Y1567304D02*
G01*
X831918Y1567304D01*
X695876Y1567352D02*
G01*
X615878Y1567352D01*
X862893Y1678289D02*
G01*
X862893Y1598284D01*
X584901Y1598338D02*
G01*
X584901Y1678340D01*
X2826859Y5166296D02*
G01*
X2826859Y5086299D01*
X2826905Y5222341D02*
G01*
X2826905Y5302338D01*
X2684891Y5166296D02*
G01*
X2684891Y5086299D01*
X2684940Y5222341D02*
G01*
X2684940Y5302338D01*
X2795877Y5055323D02*
G01*
X2715872Y5055323D01*
X2715925Y5333316D02*
G01*
X2795927Y5333316D01*
D10*
X1244422Y1163375D02*
G01*
X1095923Y1163375D01*
X1095923Y944854D02*
G01*
X1244422Y944854D01*
X1259662Y960094D02*
G01*
X1259662Y1148135D01*
X762182Y1163375D02*
G01*
X910681Y1163375D01*
X910681Y944854D02*
G01*
X762182Y944854D01*
X746942Y960094D02*
G01*
X746942Y1148135D01*
X1244422Y909375D02*
G01*
X1095923Y909375D01*
X1095923Y690854D02*
G01*
X1244422Y690854D01*
X1259662Y706094D02*
G01*
X1259662Y894135D01*
X762182Y909375D02*
G01*
X910681Y909375D01*
X910681Y690854D02*
G01*
X762182Y690854D01*
X746942Y706094D02*
G01*
X746942Y894135D01*
X2852463Y3137095D02*
G01*
X2852463Y3285594D01*
X2633941Y3285594D02*
G01*
X2633941Y3137095D01*
X2649181Y3121855D02*
G01*
X2837223Y3121855D01*
X2852463Y3619334D02*
G01*
X2852463Y3470836D01*
X2633941Y3470836D02*
G01*
X2633941Y3619334D01*
X2649181Y3634574D02*
G01*
X2837223Y3634574D01*
D12*
X871400Y1574713D02*
G01*
X1211404Y1574713D01*
X1211404Y1244716D01*
X871400Y1244716D01*
X871400Y1574713D01*
D11*
X1335605Y528706D02*
G01*
X1509989Y528706D01*
X1616217Y528706D02*
G01*
X1634987Y528706D01*
X1741215Y528706D02*
G01*
X1915599Y528706D01*
X1915599Y528706D02*
G01*
X1915599Y401822D01*
X1466217Y123708D02*
G01*
X1784987Y123708D01*
X1335605Y528706D02*
G01*
X1335605Y401822D01*
X2300805Y528706D02*
G01*
X2475189Y528706D01*
X2581417Y528706D02*
G01*
X2600187Y528706D01*
X2706415Y528706D02*
G01*
X2880799Y528706D01*
X2880799Y528706D02*
G01*
X2880799Y401822D01*
X2431417Y123708D02*
G01*
X2750187Y123708D01*
X2300805Y528706D02*
G01*
X2300805Y401822D01*
X294205Y528706D02*
G01*
X468589Y528706D01*
X574817Y528706D02*
G01*
X593587Y528706D01*
X699815Y528706D02*
G01*
X874199Y528706D01*
X874199Y528706D02*
G01*
X874199Y401822D01*
X424817Y123708D02*
G01*
X743587Y123708D01*
X294205Y528706D02*
G01*
X294205Y401822D01*
D10*
X2673222Y997005D02*
G01*
X2809214Y997005D01*
X2809214Y1212824D01*
X2673222Y1212824D01*
X2482982Y997005D02*
G01*
X2346990Y997005D01*
X2346990Y1212824D01*
X2482982Y1212824D01*
X2673222Y1263705D02*
G01*
X2809214Y1263705D01*
X2809214Y1479524D01*
X2673222Y1479524D01*
X2482982Y1263705D02*
G01*
X2346990Y1263705D01*
X2346990Y1479524D01*
X2482982Y1479524D01*
X2673222Y2025705D02*
G01*
X2809214Y2025705D01*
X2809214Y2241524D01*
X2673222Y2241524D01*
X2482982Y2025705D02*
G01*
X2346990Y2025705D01*
X2346990Y2241524D01*
X2482982Y2241524D01*
X2673222Y2292405D02*
G01*
X2809214Y2292405D01*
X2809214Y2508224D01*
X2673222Y2508224D01*
X2482982Y2292405D02*
G01*
X2346990Y2292405D01*
X2346990Y2508224D01*
X2482982Y2508224D01*
X2025522Y3143305D02*
G01*
X2161514Y3143305D01*
X2161514Y3359124D01*
X2025522Y3359124D01*
X1835282Y3143305D02*
G01*
X1699290Y3143305D01*
X1699290Y3359124D01*
X1835282Y3359124D01*
X2025522Y2825805D02*
G01*
X2161514Y2825805D01*
X2161514Y3041624D01*
X2025522Y3041624D01*
X1835282Y2825805D02*
G01*
X1699290Y2825805D01*
X1699290Y3041624D01*
X1835282Y3041624D01*
D11*
X491502Y1508914D02*
G01*
X651502Y1508914D01*
X651502Y1208915D02*
G01*
X491502Y1208915D01*
D13*
X649302Y2120115D02*
G01*
X649302Y2021116D01*
X849302Y2021116D01*
X849302Y2119114D01*
X848301Y2120115D01*
X649302Y2120115D01*
D11*
X2064501Y5752713D02*
G01*
X2064501Y5626112D01*
X1164503Y5752713D02*
G01*
X1164503Y5626112D01*
X1164503Y5752713D02*
G01*
X2064501Y5752713D01*
X748304Y5626112D02*
G01*
X748304Y5444429D01*
X2528300Y5626112D02*
G01*
X748304Y5626112D01*
X2528300Y5626112D02*
G01*
X2528300Y5444429D01*
X2528300Y3505217D02*
G01*
X2528300Y3674203D01*
X748304Y3505217D02*
G01*
X748304Y3674203D01*
X2528300Y3505217D02*
G01*
X748304Y3505217D01*
D10*
X2282169Y1323339D02*
G01*
X2282169Y988060D01*
X1858030Y988060D01*
X1858030Y1323339D01*
X2282169Y1323339D01*
X1774169Y1323339D02*
G01*
X1774169Y988060D01*
X1350030Y988060D01*
X1350030Y1323339D01*
X1774169Y1323339D01*
X2294869Y2428239D02*
G01*
X2294869Y2092960D01*
X1870730Y2092960D01*
X1870730Y2428239D01*
X2294869Y2428239D01*
X1774169Y2428239D02*
G01*
X1774169Y2092960D01*
X1350030Y2092960D01*
X1350030Y2428239D01*
X1774169Y2428239D01*
X1431269Y3190239D02*
G01*
X1431269Y2854960D01*
X1007130Y2854960D01*
X1007130Y3190239D01*
X1431269Y3190239D01*
X872469Y3190239D02*
G01*
X872469Y2854960D01*
X448330Y2854960D01*
X448330Y3190239D01*
X872469Y3190239D01*
X1047620Y2406690D02*
G01*
X1183612Y2406690D01*
X1183612Y2622509D01*
X1047620Y2622509D01*
X857379Y2406690D02*
G01*
X721387Y2406690D01*
X721387Y2622509D01*
X857379Y2622509D01*
X1911220Y1657390D02*
G01*
X2047212Y1657390D01*
X2047212Y1873209D01*
X1911220Y1873209D01*
X1720979Y1657390D02*
G01*
X1584987Y1657390D01*
X1584987Y1873209D01*
X1720979Y1873209D01*
G75*
G01*
X301483Y903176D02*
G03*
X286243Y887936I0J-15240D01*
G75*
G01*
X286243Y737695D02*
G03*
X301483Y722455I15240J0D01*
G75*
G01*
X663722Y903176D02*
G02*
X678962Y887936I0J-15240D01*
G75*
G01*
X678962Y737695D02*
G02*
X663722Y722455I-15240J0D01*
D11*
G75*
G01*
X412684Y983153D02*
G02*
X381701Y1014138I0J30983D01*
G75*
G01*
X381701Y1094135D02*
G02*
X412684Y1125118I30983J0D01*
G75*
G01*
X628714Y1125073D02*
G02*
X659694Y1094090I-3J-30983D01*
G75*
G01*
X659694Y1014092D02*
G02*
X628714Y983104I-30983J-5D01*
G75*
G01*
X615884Y1567353D02*
G02*
X584901Y1598338I0J30983D01*
G75*
G01*
X584901Y1678335D02*
G02*
X615884Y1709318I30983J0D01*
G75*
G01*
X831914Y1709273D02*
G02*
X862894Y1678290I-3J-30983D01*
G75*
G01*
X862894Y1598292D02*
G02*
X831914Y1567304I-30983J-5D01*
G75*
G01*
X2684940Y5302334D02*
G02*
X2715925Y5333317I30983J0D01*
G75*
G01*
X2795923Y5333317D02*
G02*
X2826906Y5302334I0J-30983D01*
G75*
G01*
X2826860Y5086304D02*
G02*
X2795877Y5055324I-30983J3D01*
G75*
G01*
X2715880Y5055324D02*
G02*
X2684892Y5086304I-5J30983D01*
D10*
G75*
G01*
X1244422Y944855D02*
G03*
X1259662Y960095I0J15240D01*
G75*
G01*
X1259662Y1148136D02*
G03*
X1244422Y1163376I-15240J0D01*
G75*
G01*
X762183Y944855D02*
G02*
X746943Y960095I0J15240D01*
G75*
G01*
X746943Y1148136D02*
G02*
X762183Y1163376I15240J0D01*
G75*
G01*
X1244422Y690855D02*
G03*
X1259662Y706095I0J15240D01*
G75*
G01*
X1259662Y894136D02*
G03*
X1244422Y909376I-15240J0D01*
G75*
G01*
X762183Y690855D02*
G02*
X746943Y706095I0J15240D01*
G75*
G01*
X746943Y894136D02*
G02*
X762183Y909376I15240J0D01*
G75*
G01*
X2633942Y3137096D02*
G03*
X2649182Y3121856I15240J0D01*
G75*
G01*
X2837223Y3121856D02*
G03*
X2852463Y3137096I0J15240D01*
G75*
G01*
X2633942Y3619335D02*
G02*
X2649182Y3634575I15240J0D01*
G75*
G01*
X2837223Y3634575D02*
G02*
X2852463Y3619335I0J-15240D01*
D11*
G75*
G01
X838479Y1289736D02*
G03X838479Y1289736I-7087J0D01*
G75*
G01
X371704Y1456436D02*
G03X371704Y1456436I-12700J0D01*
D13*
G75*
G01
X647294Y1979117D02*
G03X647294Y1979117I-5004J0D01*
G75*
G01
X676300Y2044116D02*
G03X676300Y2044116I-5004J0D01*
D14*
G75*
G01
X670687Y5498008D02*
G03X670687Y5498008I-24994J0D01*
D15*
G75*
G01
X2212111Y1248105D02*
G03X2212111Y1248105I-15011J0D01*
G75*
G01
X2301011Y1384300D02*
G03X2301011Y1384300I-15011J0D01*
G75*
G01
X1704111Y1248105D02*
G03X1704111Y1248105I-15011J0D01*
G75*
G01
X1793011Y1384300D02*
G03X1793011Y1384300I-15011J0D01*
G75*
G01
X2224811Y2353005D02*
G03X2224811Y2353005I-15011J0D01*
G75*
G01
X2313711Y2489200D02*
G03X2313711Y2489200I-15011J0D01*
G75*
G01
X1704111Y2353005D02*
G03X1704111Y2353005I-15011J0D01*
G75*
G01
X1793011Y2489200D02*
G03X1793011Y2489200I-15011J0D01*
G75*
G01
X1361211Y3115005D02*
G03X1361211Y3115005I-15011J0D01*
G75*
G01
X1450111Y3251200D02*
G03X1450111Y3251200I-15011J0D01*
G75*
G01
X802411Y3115005D02*
G03X802411Y3115005I-15011J0D01*
G75*
G01
X891311Y3251200D02*
G03X891311Y3251200I-15011J0D01*
M02*
