G04 Layer: TopLayer*
G04 EasyEDA v6.5.51, 2026-09-25 11:00:27*
G04 aefef3df197f448ab4cbd56205182360,c088ded6e3c04853ab2496fc10f77cd9,10*
G04 Gerber Generator version 0.2*
G04 Scale: 100 percent, Rotated: No, Reflected: No *
G04 Dimensions in millimeters *
G04 leading zeros omitted , absolute positions ,4 integer and 5 decimal *
%FSLAX45Y45*%
%MOMM*%

%AMMACRO1*21,1,$1,$2,0,0,$3*%
%ADD10C,0.2032*%
%ADD11C,0.2540*%
%ADD12MACRO1,1.35X1.41X-90.0000*%
%ADD13R,0.8000X0.9000*%
%ADD14R,0.9000X0.8000*%
%ADD15MACRO1,1.728X1.485X90.0000*%
%ADD16C,0.0151*%
%ADD17MACRO1,1.728X1.485X0.0000*%
%ADD18R,1.7280X1.4850*%
%ADD19MACRO1,1X2.9X0.0000*%
%ADD20R,0.6000X1.7000*%
%ADD21R,1.3000X2.9000*%
%ADD22MACRO1,1.701X1.2075X90.0000*%
%ADD23R,1.2000X0.5500*%
%ADD24R,0.3500X0.8500*%
%ADD25R,2.8000X2.8000*%
%ADD26R,2.0000X1.0000*%
%ADD27R,3.0000X2.0000*%
%ADD28C,1.1430*%
%ADD29R,0.8000X1.3000*%
%ADD30C,0.6200*%

%LPD*%
D10*
X99821Y3869944D02*
G01*
X293623Y3869944D01*
X192023Y3869944D02*
G01*
X173736Y3851655D01*
X164337Y3833113D01*
X164337Y3805428D01*
X173736Y3786886D01*
X192023Y3768344D01*
X219710Y3759200D01*
X238252Y3759200D01*
X265937Y3768344D01*
X284479Y3786886D01*
X293623Y3805428D01*
X293623Y3833113D01*
X284479Y3851655D01*
X265937Y3869944D01*
X219710Y3930904D02*
G01*
X219710Y4041902D01*
X201421Y4041902D01*
X182879Y4032504D01*
X173736Y4023360D01*
X164337Y4004818D01*
X164337Y3977131D01*
X173736Y3958589D01*
X192023Y3940302D01*
X219710Y3930904D01*
X238252Y3930904D01*
X265937Y3940302D01*
X284479Y3958589D01*
X293623Y3977131D01*
X293623Y4004818D01*
X284479Y4023360D01*
X265937Y4041902D01*
X192023Y4204462D02*
G01*
X173736Y4195063D01*
X164337Y4167378D01*
X164337Y4139692D01*
X173736Y4112005D01*
X192023Y4102862D01*
X210565Y4112005D01*
X219710Y4130547D01*
X229107Y4176776D01*
X238252Y4195063D01*
X256794Y4204462D01*
X265937Y4204462D01*
X284479Y4195063D01*
X293623Y4167378D01*
X293623Y4139692D01*
X284479Y4112005D01*
X265937Y4102862D01*
X99821Y4265421D02*
G01*
X108965Y4274565D01*
X99821Y4283710D01*
X90423Y4274565D01*
X99821Y4265421D01*
X164337Y4274565D02*
G01*
X293623Y4274565D01*
X164337Y4455668D02*
G01*
X312165Y4455668D01*
X339852Y4446270D01*
X349250Y4437126D01*
X358394Y4418584D01*
X358394Y4390897D01*
X349250Y4372610D01*
X192023Y4455668D02*
G01*
X173736Y4437126D01*
X164337Y4418584D01*
X164337Y4390897D01*
X173736Y4372610D01*
X192023Y4354068D01*
X219710Y4344670D01*
X238252Y4344670D01*
X265937Y4354068D01*
X284479Y4372610D01*
X293623Y4390897D01*
X293623Y4418584D01*
X284479Y4437126D01*
X265937Y4455668D01*
X164337Y4516628D02*
G01*
X293623Y4516628D01*
X201421Y4516628D02*
G01*
X173736Y4544313D01*
X164337Y4562855D01*
X164337Y4590542D01*
X173736Y4608829D01*
X201421Y4618228D01*
X293623Y4618228D01*
X219710Y4679187D02*
G01*
X219710Y4789931D01*
X201421Y4789931D01*
X182879Y4780787D01*
X173736Y4771389D01*
X164337Y4753102D01*
X164337Y4725415D01*
X173736Y4706873D01*
X192023Y4688331D01*
X219710Y4679187D01*
X238252Y4679187D01*
X265937Y4688331D01*
X284479Y4706873D01*
X293623Y4725415D01*
X293623Y4753102D01*
X284479Y4771389D01*
X265937Y4789931D01*
X99821Y4961889D02*
G01*
X293623Y4961889D01*
X192023Y4961889D02*
G01*
X173736Y4943347D01*
X164337Y4924805D01*
X164337Y4897120D01*
X173736Y4878578D01*
X192023Y4860289D01*
X219710Y4850892D01*
X238252Y4850892D01*
X265937Y4860289D01*
X284479Y4878578D01*
X293623Y4897120D01*
X293623Y4924805D01*
X284479Y4943347D01*
X265937Y4961889D01*
X99821Y5165089D02*
G01*
X293623Y5165089D01*
X192023Y5165089D02*
G01*
X173736Y5183378D01*
X164337Y5201920D01*
X164337Y5229605D01*
X173736Y5248147D01*
X192023Y5266689D01*
X219710Y5275834D01*
X238252Y5275834D01*
X265937Y5266689D01*
X284479Y5248147D01*
X293623Y5229605D01*
X293623Y5201920D01*
X284479Y5183378D01*
X265937Y5165089D01*
X164337Y5345937D02*
G01*
X293623Y5401310D01*
X164337Y5456936D02*
G01*
X293623Y5401310D01*
X330707Y5383021D01*
X349250Y5364479D01*
X358394Y5345937D01*
X358394Y5336794D01*
X182879Y5527039D02*
G01*
X192023Y5517895D01*
X201421Y5527039D01*
X192023Y5536184D01*
X182879Y5527039D01*
X247650Y5527039D02*
G01*
X256794Y5517895D01*
X265937Y5527039D01*
X256794Y5536184D01*
X247650Y5527039D01*
X2830322Y3822700D02*
G01*
X3024124Y3822700D01*
X2830322Y3822700D02*
G01*
X2830322Y3905757D01*
X2839465Y3933444D01*
X2848609Y3942842D01*
X2867152Y3951986D01*
X2885693Y3951986D01*
X2904236Y3942842D01*
X2913379Y3933444D01*
X2922524Y3905757D01*
X2922524Y3822700D01*
X2922524Y3887470D02*
G01*
X3024124Y3951986D01*
X2830322Y4012945D02*
G01*
X3024124Y4012945D01*
X2830322Y4012945D02*
G01*
X2830322Y4133087D01*
X2922524Y4012945D02*
G01*
X2922524Y4086860D01*
X3024124Y4012945D02*
G01*
X3024124Y4133087D01*
X2830322Y4194047D02*
G01*
X3024124Y4267962D01*
X2830322Y4341876D02*
G01*
X3024124Y4267962D01*
X2867152Y4545076D02*
G01*
X2858008Y4563363D01*
X2830322Y4591050D01*
X3024124Y4591050D01*
X2978150Y4661407D02*
G01*
X2987293Y4652010D01*
X2996438Y4661407D01*
X2987293Y4670552D01*
X2978150Y4661407D01*
X2830322Y4786884D02*
G01*
X2839465Y4759197D01*
X2867152Y4740910D01*
X2913379Y4731512D01*
X2941065Y4731512D01*
X2987293Y4740910D01*
X3014979Y4759197D01*
X3024124Y4786884D01*
X3024124Y4805426D01*
X3014979Y4833112D01*
X2987293Y4851654D01*
X2941065Y4860797D01*
X2913379Y4860797D01*
X2867152Y4851654D01*
X2839465Y4833112D01*
X2830322Y4805426D01*
X2830322Y4786884D01*
X419607Y3901186D02*
G01*
X401065Y3882644D01*
X391921Y3854957D01*
X391921Y3818128D01*
X401065Y3790442D01*
X419607Y3771900D01*
X438150Y3771900D01*
X456437Y3781044D01*
X465836Y3790442D01*
X474979Y3808729D01*
X493521Y3864355D01*
X502665Y3882644D01*
X511810Y3892042D01*
X530352Y3901186D01*
X558037Y3901186D01*
X576579Y3882644D01*
X585723Y3854957D01*
X585723Y3818128D01*
X576579Y3790442D01*
X558037Y3771900D01*
X428752Y3962145D02*
G01*
X419607Y3980687D01*
X391921Y4008373D01*
X585723Y4008373D01*
X428752Y4069334D02*
G01*
X419607Y4087876D01*
X391921Y4115562D01*
X585723Y4115562D01*
X391921Y4268723D02*
G01*
X521207Y4176521D01*
X521207Y4314952D01*
X391921Y4268723D02*
G01*
X585723Y4268723D01*
X419607Y4486910D02*
G01*
X401065Y4477512D01*
X391921Y4449826D01*
X391921Y4431284D01*
X401065Y4403597D01*
X428752Y4385310D01*
X474979Y4375912D01*
X521207Y4375912D01*
X558037Y4385310D01*
X576579Y4403597D01*
X585723Y4431284D01*
X585723Y4440681D01*
X576579Y4468368D01*
X558037Y4486910D01*
X530352Y4496054D01*
X521207Y4496054D01*
X493521Y4486910D01*
X474979Y4468368D01*
X465836Y4440681D01*
X465836Y4431284D01*
X474979Y4403597D01*
X493521Y4385310D01*
X521207Y4375912D01*
X391921Y4649470D02*
G01*
X521207Y4557013D01*
X521207Y4695444D01*
X391921Y4649470D02*
G01*
X585723Y4649470D01*
X419607Y4867402D02*
G01*
X401065Y4858004D01*
X391921Y4830318D01*
X391921Y4812029D01*
X401065Y4784089D01*
X428752Y4765802D01*
X474979Y4756404D01*
X521207Y4756404D01*
X558037Y4765802D01*
X576579Y4784089D01*
X585723Y4812029D01*
X585723Y4821173D01*
X576579Y4848860D01*
X558037Y4867402D01*
X530352Y4876545D01*
X521207Y4876545D01*
X493521Y4867402D01*
X474979Y4848860D01*
X465836Y4821173D01*
X465836Y4812029D01*
X474979Y4784089D01*
X493521Y4765802D01*
X521207Y4756404D01*
X391921Y4983734D02*
G01*
X401065Y4956047D01*
X419607Y4946650D01*
X438150Y4946650D01*
X456437Y4956047D01*
X465836Y4974589D01*
X474979Y5011420D01*
X484123Y5039105D01*
X502665Y5057647D01*
X521207Y5066792D01*
X548894Y5066792D01*
X567436Y5057647D01*
X576579Y5048250D01*
X585723Y5020563D01*
X585723Y4983734D01*
X576579Y4956047D01*
X567436Y4946650D01*
X548894Y4937505D01*
X521207Y4937505D01*
X502665Y4946650D01*
X484123Y4965192D01*
X474979Y4992878D01*
X465836Y5029962D01*
X456437Y5048250D01*
X438150Y5057647D01*
X419607Y5057647D01*
X401065Y5048250D01*
X391921Y5020563D01*
X391921Y4983734D01*
G36*
X749300Y1714500D02*
G01*
X749300Y1562100D01*
X863600Y1562100D01*
X863600Y1384300D01*
X635000Y1384300D01*
X635000Y1333500D01*
X876300Y1333500D01*
X876300Y1257300D01*
X1016000Y1257300D01*
X1016000Y1714500D01*
G37*
G36*
X304800Y1397000D02*
G01*
X304800Y736600D01*
X381000Y736600D01*
X381000Y457200D01*
X558800Y457200D01*
X558800Y647700D01*
X457200Y647700D01*
X457200Y990600D01*
X495300Y990600D01*
X495300Y1231900D01*
X520700Y1231900D01*
X520700Y1397000D01*
G37*
G36*
X546100Y1485900D02*
G01*
X546100Y889000D01*
X508000Y889000D01*
X508000Y736600D01*
X609600Y736600D01*
X609600Y393700D01*
X266700Y393700D01*
X266700Y76200D01*
X3048000Y76200D01*
X3048000Y393700D01*
X927100Y393700D01*
X927100Y1155700D01*
X762000Y1155700D01*
X762000Y1295400D01*
X596900Y1295400D01*
X596900Y1485900D01*
G37*
G36*
X622300Y2006600D02*
G01*
X622300Y1879600D01*
X381000Y1879600D01*
X381000Y1422400D01*
X520700Y1422400D01*
X520700Y1752600D01*
X1079500Y1752600D01*
X1079500Y698500D01*
X1257300Y698500D01*
X1257300Y1879600D01*
X698500Y1879600D01*
X698500Y2006600D01*
G37*
G36*
X723900Y2235200D02*
G01*
X723900Y2108200D01*
X419100Y2108200D01*
X419100Y1930400D01*
X520700Y1930400D01*
X520700Y2032000D01*
X723900Y2032000D01*
X723900Y1917700D01*
X774700Y1917700D01*
X774700Y2133600D01*
X838200Y2133600D01*
X838200Y2235200D01*
G37*
G36*
X495300Y2311400D02*
G01*
X495300Y2133600D01*
X698500Y2133600D01*
X698500Y2260600D01*
X863600Y2260600D01*
X863600Y2082800D01*
X800100Y2082800D01*
X800100Y1917700D01*
X914400Y1917700D01*
X914400Y2311400D01*
G37*
D11*
X1955800Y1986051D02*
G01*
X1963978Y1977872D01*
X1963978Y1765300D01*
X1689100Y1986051D02*
G01*
X1668221Y1965172D01*
X1668221Y1765300D01*
X1092200Y2748051D02*
G01*
X1100378Y2739872D01*
X1100378Y2514600D01*
X787400Y2748051D02*
G01*
X804621Y2730830D01*
X804621Y2514600D01*
X2468298Y5321302D02*
G01*
X2171702Y5321302D01*
X2468298Y5067302D02*
G01*
X2430198Y5029202D01*
X2222502Y5029202D01*
X2725981Y1371615D02*
G01*
X2717802Y1379794D01*
X2717802Y1663702D01*
X808306Y4813302D02*
G01*
X897219Y4902215D01*
X1066802Y4902215D01*
X808306Y4559327D02*
G01*
X965189Y4559327D01*
X2006602Y3517915D01*
X2184402Y3517915D01*
X2463802Y3238515D01*
X2463802Y2997215D01*
X2725981Y2735036D01*
X2725981Y2400315D01*
X808306Y4305327D02*
G01*
X1024168Y4305327D01*
X2078281Y3251215D01*
X2755902Y5124310D02*
G01*
X2743202Y5111610D01*
X2743202Y3537473D01*
X2755902Y5124310D02*
G01*
X2698894Y5067302D01*
X2468298Y5067302D01*
X2468298Y5321302D02*
G01*
X2525280Y5264320D01*
X2755902Y5264320D01*
X2078281Y3251215D02*
G01*
X2078281Y2933715D01*
X546102Y2773464D02*
G01*
X609602Y2709964D01*
X609602Y2413015D01*
X1346202Y2773464D02*
G01*
X1562102Y2557564D01*
X1562102Y2374915D01*
X1816102Y2120915D01*
X2057402Y2120915D01*
X2192253Y1986064D01*
X2209802Y1986064D01*
X1782571Y2933715D02*
G01*
X990602Y2933715D01*
X800102Y3124215D01*
X800102Y3322591D01*
X1346202Y3322566D02*
G01*
X1417553Y3251215D01*
X1782523Y3251215D01*
X1092202Y3322566D02*
G01*
X1092202Y3149615D01*
X546102Y3322566D02*
G01*
X546102Y3149615D01*
X2430272Y2400315D02*
G01*
X2430272Y2675145D01*
X2387602Y2717815D01*
X1727202Y2717815D01*
X1689102Y2679715D01*
X1689102Y2535191D01*
X2430223Y2133615D02*
G01*
X2209802Y2354036D01*
X2209802Y2535166D01*
X2725981Y2400315D02*
G01*
X2725981Y2133615D01*
X1435102Y2171715D02*
G01*
X1435102Y1986064D01*
X1955802Y2362202D02*
G01*
X1955802Y2535166D01*
X1435102Y2362202D02*
G01*
X1435102Y2535166D01*
X1943102Y1295410D02*
G01*
X1943102Y1468366D01*
X1435102Y1295410D02*
G01*
X1435102Y1468366D01*
X2209802Y1986038D02*
G01*
X2420879Y1986038D01*
X2528318Y1878599D01*
X2528318Y851931D01*
X2430272Y1371615D02*
G01*
X2430272Y1430545D01*
X2260602Y1600215D01*
X1803402Y1600215D01*
X1689102Y1485915D01*
X1689102Y1468391D01*
X2725981Y1104915D02*
G01*
X2725981Y1371615D01*
X2430223Y1104915D02*
G01*
X2197102Y1338036D01*
X2197102Y1468366D01*
X2654302Y914415D02*
G01*
X2653286Y553735D01*
X1435102Y1117610D02*
G01*
X1435102Y919264D01*
X2197102Y919264D02*
G01*
X2201951Y914415D01*
X2463802Y914415D01*
X2528295Y851908D01*
X2528295Y553712D01*
X1688109Y553712D02*
G01*
X1689102Y554697D01*
X1689102Y919264D01*
X1943102Y919264D02*
G01*
X1782851Y1079515D01*
X1612902Y1079515D01*
X1562102Y1028715D01*
X1562102Y584215D01*
X1563095Y583222D01*
X1563095Y553712D01*
X653897Y1638315D02*
G01*
X691494Y1600723D01*
X691494Y1453911D01*
X2743200Y3218942D02*
G01*
X2699258Y3218942D01*
X2108200Y3810000D01*
X2108200Y5080000D01*
X2349500Y5321300D01*
X2468372Y5321300D01*
D12*
G01*
X382600Y812815D03*
G01*
X582604Y812815D03*
D13*
G01*
X450697Y1054125D03*
G01*
X590702Y1054125D03*
G01*
X653897Y1638325D03*
G01*
X793902Y1638325D03*
D14*
G01*
X2755900Y5264302D03*
G01*
X2755900Y5124322D03*
D15*
G01*
X1162552Y1054115D03*
G01*
X844052Y1054115D03*
G01*
X1162552Y800115D03*
G01*
X844052Y800115D03*
D17*
G01*
X2743202Y3218964D03*
D18*
G01*
X2743200Y3537457D03*
D19*
G01*
X941402Y1409713D03*
G01*
X1141402Y1409713D03*
D20*
G01*
X1563115Y553720D03*
G01*
X1688109Y553720D03*
D21*
G01*
X1873097Y233705D03*
G01*
X1378102Y233705D03*
D20*
G01*
X2528315Y553720D03*
G01*
X2653309Y553720D03*
D21*
G01*
X2838297Y233705D03*
G01*
X2343302Y233705D03*
D20*
G01*
X521715Y553720D03*
G01*
X646709Y553720D03*
D21*
G01*
X831697Y233705D03*
G01*
X336702Y233705D03*
D22*
G01*
X2725978Y1104915D03*
G01*
X2430226Y1104915D03*
G01*
X2725978Y1371615D03*
G01*
X2430226Y1371615D03*
G01*
X2725978Y2133615D03*
G01*
X2430226Y2133615D03*
G01*
X2725978Y2400315D03*
G01*
X2430226Y2400315D03*
G01*
X2078278Y3251215D03*
G01*
X1782526Y3251215D03*
G01*
X2078278Y2933715D03*
G01*
X1782526Y2933715D03*
D23*
G01*
X691514Y1453921D03*
G01*
X691514Y1263929D03*
G01*
X451510Y1263929D03*
G01*
X451510Y1358925D03*
G01*
X451510Y1453921D03*
G01*
X691514Y1358925D03*
D24*
G01*
X684301Y1960118D03*
G01*
X749300Y1960118D03*
G01*
X814298Y1960118D03*
G01*
X814298Y2180107D03*
G01*
X749300Y2180107D03*
G01*
X684301Y2180107D03*
D25*
G01*
X1888286Y4495825D03*
D26*
G01*
X1193800Y4787900D03*
G01*
X1193800Y4597400D03*
D27*
G01*
X808304Y5321325D03*
G01*
X808304Y5067325D03*
G01*
X808304Y4813325D03*
G01*
X808304Y4559325D03*
G01*
X808304Y4305325D03*
G01*
X808304Y4051325D03*
G01*
X808304Y3797325D03*
G01*
X2468295Y3797325D03*
G01*
X2468295Y4051325D03*
G01*
X2468295Y4305325D03*
G01*
X2468295Y4559325D03*
G01*
X2468295Y4813325D03*
G01*
X2468295Y5067325D03*
G01*
X2468295Y5321325D03*
D28*
G01*
X1765274Y5422900D03*
G01*
X1765274Y5168900D03*
G01*
X1511274Y5168900D03*
G01*
X1511274Y5422900D03*
G01*
X1511300Y4914900D03*
G01*
X1765300Y4914900D03*
D29*
G01*
X2197100Y1430248D03*
G01*
X1943100Y1430248D03*
G01*
X2197100Y881151D03*
G01*
X1943100Y881151D03*
G01*
X1689100Y1430248D03*
G01*
X1435100Y1430248D03*
G01*
X1689100Y881151D03*
G01*
X1435100Y881151D03*
G01*
X2209800Y2535148D03*
G01*
X1955800Y2535148D03*
G01*
X2209800Y1986051D03*
G01*
X1955800Y1986051D03*
G01*
X1689100Y2535148D03*
G01*
X1435100Y2535148D03*
G01*
X1689100Y1986051D03*
G01*
X1435100Y1986051D03*
G01*
X1346200Y3297148D03*
G01*
X1092200Y3297148D03*
G01*
X1346200Y2748051D03*
G01*
X1092200Y2748051D03*
G01*
X787400Y3297148D03*
G01*
X533400Y3297148D03*
G01*
X787400Y2748051D03*
G01*
X533400Y2748051D03*
D22*
G01*
X1100376Y2514600D03*
G01*
X804623Y2514600D03*
G01*
X1963976Y1765300D03*
G01*
X1668223Y1765300D03*
D30*
G01*
X749300Y609625D03*
G01*
X469900Y1981225D03*
G01*
X457200Y241325D03*
G01*
X1435100Y1117600D03*
G01*
X2654300Y914425D03*
G01*
X1435100Y2362200D03*
G01*
X1435100Y2171725D03*
G01*
X1955800Y2362200D03*
G01*
X1943100Y1295400D03*
G01*
X1435100Y1295400D03*
G01*
X546100Y3149625D03*
G01*
X1092200Y3149625D03*
G01*
X609600Y2413025D03*
G01*
X558800Y2197125D03*
G01*
X2717800Y1663700D03*
G01*
X1066800Y4902225D03*
G01*
X2171700Y5321300D03*
G01*
X2222500Y5029200D03*
M02*
