G04 Layer: InnerLayer1*
G04 EasyEDA v6.5.51, 2026-09-25 11:00:27*
G04 aefef3df197f448ab4cbd56205182360,c088ded6e3c04853ab2496fc10f77cd9,10*
G04 Gerber Generator version 0.2*
G04 Scale: 100 percent, Rotated: No, Reflected: No *
G04 Dimensions in millimeters *
G04 leading zeros omitted , absolute positions ,4 integer and 5 decimal *
%FSLAX45Y45*%
%MOMM*%

%ADD10C,0.6200*%
%ADD11C,0.0198*%

%LPD*%
G36*
X74168Y51308D02*
G01*
X70256Y52069D01*
X67005Y54305D01*
X64769Y57556D01*
X64008Y61467D01*
X64008Y5767832D01*
X64769Y5771692D01*
X67005Y5774994D01*
X70256Y5777230D01*
X74168Y5777992D01*
X3131312Y5777992D01*
X3135223Y5777230D01*
X3138525Y5774994D01*
X3140710Y5771692D01*
X3141472Y5767832D01*
X3141472Y61467D01*
X3140710Y57556D01*
X3138525Y54305D01*
X3135223Y52069D01*
X3131312Y51308D01*
G37*

%LPC*%
G36*
X2656738Y857605D02*
G01*
X2666288Y858824D01*
X2675483Y861669D01*
X2684119Y865987D01*
X2691892Y871728D01*
X2698546Y878687D01*
X2703931Y886663D01*
X2707944Y895451D01*
X2710332Y904798D01*
X2711196Y914400D01*
X2710332Y924001D01*
X2707944Y933348D01*
X2703931Y942136D01*
X2698546Y950163D01*
X2691892Y957122D01*
X2684119Y962863D01*
X2675483Y967181D01*
X2666288Y970026D01*
X2656738Y971245D01*
X2647086Y970838D01*
X2637637Y968806D01*
X2628696Y965200D01*
X2620467Y960119D01*
X2613253Y953769D01*
X2607208Y946251D01*
X2602484Y937818D01*
X2599283Y928725D01*
X2597658Y919226D01*
X2597658Y909574D01*
X2599283Y900074D01*
X2602484Y890981D01*
X2607208Y882548D01*
X2613253Y875080D01*
X2620467Y868680D01*
X2628696Y863650D01*
X2637637Y860044D01*
X2647086Y858012D01*
G37*
G36*
X1437538Y1060805D02*
G01*
X1447088Y1062024D01*
X1456283Y1064818D01*
X1464919Y1069187D01*
X1472692Y1074928D01*
X1479346Y1081887D01*
X1484731Y1089863D01*
X1488744Y1098651D01*
X1491132Y1107998D01*
X1491996Y1117600D01*
X1491132Y1127201D01*
X1488744Y1136548D01*
X1484731Y1145336D01*
X1479346Y1153312D01*
X1472692Y1160322D01*
X1464919Y1166012D01*
X1456283Y1170381D01*
X1447088Y1173226D01*
X1437538Y1174445D01*
X1427886Y1174038D01*
X1418437Y1172006D01*
X1409496Y1168400D01*
X1401267Y1163320D01*
X1394053Y1156970D01*
X1388008Y1149451D01*
X1383284Y1141018D01*
X1380083Y1131925D01*
X1378458Y1122426D01*
X1378458Y1112774D01*
X1380083Y1103274D01*
X1383284Y1094181D01*
X1388008Y1085748D01*
X1394053Y1078280D01*
X1401267Y1071880D01*
X1409496Y1066800D01*
X1418437Y1063244D01*
X1427886Y1061212D01*
G37*
G36*
X2720238Y1606905D02*
G01*
X2729788Y1608124D01*
X2738983Y1610918D01*
X2747619Y1615287D01*
X2755392Y1621028D01*
X2762046Y1627987D01*
X2767431Y1635963D01*
X2771444Y1644751D01*
X2773832Y1654098D01*
X2774696Y1663700D01*
X2773832Y1673301D01*
X2771444Y1682648D01*
X2767431Y1691436D01*
X2762046Y1699412D01*
X2755392Y1706422D01*
X2747619Y1712112D01*
X2738983Y1716481D01*
X2729788Y1719325D01*
X2720238Y1720545D01*
X2710586Y1720138D01*
X2701137Y1718106D01*
X2692196Y1714500D01*
X2683967Y1709420D01*
X2676753Y1703070D01*
X2670657Y1695551D01*
X2665984Y1687118D01*
X2662783Y1678025D01*
X2661158Y1668525D01*
X2661158Y1658874D01*
X2662783Y1649374D01*
X2665984Y1640281D01*
X2670657Y1631848D01*
X2676753Y1624380D01*
X2683967Y1617980D01*
X2692196Y1612900D01*
X2701137Y1609344D01*
X2710586Y1607312D01*
G37*
G36*
X1437538Y2114905D02*
G01*
X1447088Y2116124D01*
X1456283Y2118969D01*
X1464919Y2123287D01*
X1472692Y2129028D01*
X1479346Y2135987D01*
X1484731Y2143963D01*
X1488744Y2152751D01*
X1491132Y2162098D01*
X1491996Y2171700D01*
X1491132Y2181301D01*
X1488744Y2190648D01*
X1484731Y2199436D01*
X1479346Y2207463D01*
X1472692Y2214422D01*
X1464919Y2220163D01*
X1456283Y2224481D01*
X1447088Y2227326D01*
X1437538Y2228545D01*
X1427886Y2228138D01*
X1418437Y2226106D01*
X1409496Y2222500D01*
X1401267Y2217420D01*
X1394053Y2211070D01*
X1388008Y2203551D01*
X1383284Y2195118D01*
X1380083Y2186025D01*
X1378458Y2176526D01*
X1378458Y2166874D01*
X1380083Y2157374D01*
X1383284Y2148281D01*
X1388008Y2139848D01*
X1394053Y2132380D01*
X1401267Y2125980D01*
X1409496Y2120950D01*
X1418437Y2117344D01*
X1427886Y2115312D01*
G37*
G36*
X561238Y2140305D02*
G01*
X570788Y2141524D01*
X579983Y2144369D01*
X588619Y2148687D01*
X596392Y2154428D01*
X603046Y2161387D01*
X608431Y2169363D01*
X612444Y2178151D01*
X614832Y2187498D01*
X615696Y2197100D01*
X614832Y2206701D01*
X612444Y2216048D01*
X608431Y2224836D01*
X603046Y2232863D01*
X596392Y2239822D01*
X588619Y2245563D01*
X579983Y2249881D01*
X570788Y2252726D01*
X561238Y2253945D01*
X551586Y2253538D01*
X542137Y2251506D01*
X533196Y2247900D01*
X524967Y2242820D01*
X517753Y2236470D01*
X511708Y2228951D01*
X506984Y2220518D01*
X503783Y2211425D01*
X502158Y2201926D01*
X502158Y2192274D01*
X503783Y2182774D01*
X506984Y2173681D01*
X511708Y2165248D01*
X517753Y2157780D01*
X524967Y2151380D01*
X533196Y2146350D01*
X542137Y2142744D01*
X551586Y2140712D01*
G37*
G36*
X612038Y2356205D02*
G01*
X621588Y2357424D01*
X630783Y2360269D01*
X639419Y2364587D01*
X647192Y2370328D01*
X653846Y2377287D01*
X659231Y2385263D01*
X663244Y2394051D01*
X665632Y2403398D01*
X666496Y2413000D01*
X665632Y2422601D01*
X663244Y2431948D01*
X659231Y2440736D01*
X653846Y2448763D01*
X647192Y2455722D01*
X639419Y2461463D01*
X630783Y2465781D01*
X621588Y2468626D01*
X612038Y2469845D01*
X602386Y2469438D01*
X592937Y2467406D01*
X583996Y2463800D01*
X575767Y2458720D01*
X568553Y2452370D01*
X562508Y2444851D01*
X557784Y2436418D01*
X554583Y2427325D01*
X552958Y2417826D01*
X552958Y2408174D01*
X554583Y2398674D01*
X557784Y2389581D01*
X562508Y2381148D01*
X568553Y2373680D01*
X575767Y2367280D01*
X583996Y2362250D01*
X592937Y2358644D01*
X602386Y2356612D01*
G37*
G36*
X1069238Y4845405D02*
G01*
X1078788Y4846624D01*
X1087983Y4849469D01*
X1096619Y4853787D01*
X1104392Y4859528D01*
X1111046Y4866487D01*
X1116431Y4874463D01*
X1120444Y4883251D01*
X1122832Y4892598D01*
X1123696Y4902200D01*
X1122832Y4911801D01*
X1120444Y4921148D01*
X1116431Y4929936D01*
X1111046Y4937963D01*
X1104392Y4944922D01*
X1096619Y4950663D01*
X1087983Y4954981D01*
X1078788Y4957826D01*
X1069238Y4959045D01*
X1059586Y4958638D01*
X1050137Y4956606D01*
X1041196Y4953000D01*
X1032967Y4947920D01*
X1025753Y4941570D01*
X1019708Y4934051D01*
X1014984Y4925618D01*
X1011783Y4916525D01*
X1010158Y4907026D01*
X1010158Y4897374D01*
X1011783Y4887874D01*
X1014984Y4878781D01*
X1019708Y4870348D01*
X1025753Y4862880D01*
X1032967Y4856480D01*
X1041196Y4851450D01*
X1050137Y4847844D01*
X1059586Y4845812D01*
G37*
G36*
X2174138Y5264454D02*
G01*
X2183688Y5265724D01*
X2192883Y5268518D01*
X2201519Y5272887D01*
X2209292Y5278628D01*
X2215946Y5285587D01*
X2221331Y5293563D01*
X2225344Y5302351D01*
X2227732Y5311698D01*
X2228596Y5321300D01*
X2227732Y5330901D01*
X2225344Y5340248D01*
X2221331Y5349036D01*
X2215946Y5357012D01*
X2209292Y5363972D01*
X2201519Y5369712D01*
X2192883Y5374081D01*
X2183688Y5376875D01*
X2174138Y5378145D01*
X2164486Y5377688D01*
X2155037Y5375656D01*
X2146096Y5372100D01*
X2137867Y5367020D01*
X2130653Y5360670D01*
X2124557Y5353151D01*
X2119884Y5344718D01*
X2116683Y5335625D01*
X2115058Y5326126D01*
X2115058Y5316474D01*
X2116683Y5306974D01*
X2119884Y5297881D01*
X2124557Y5289448D01*
X2130653Y5281930D01*
X2137867Y5275580D01*
X2146096Y5270500D01*
X2155037Y5266944D01*
X2164486Y5264912D01*
G37*

%LPD*%
D10*
G01*
X749300Y609625D03*
G01*
X469900Y1981225D03*
G01*
X457200Y241325D03*
G01*
X1435100Y1117600D03*
G01*
X2654300Y914425D03*
G01*
X1435100Y2362200D03*
G01*
X1435100Y2171725D03*
G01*
X1955800Y2362200D03*
G01*
X1943100Y1295400D03*
G01*
X1435100Y1295400D03*
G01*
X546100Y3149625D03*
G01*
X1092200Y3149625D03*
G01*
X609600Y2413025D03*
G01*
X558800Y2197125D03*
G01*
X2717800Y1663700D03*
G01*
X1066800Y4902225D03*
G01*
X2171700Y5321300D03*
G01*
X2222500Y5029200D03*
M02*
