G04 Layer: TopSolderMaskLayer*
G04 EasyEDA v6.5.51, 2026-09-25 11:00:27*
G04 aefef3df197f448ab4cbd56205182360,c088ded6e3c04853ab2496fc10f77cd9,10*
G04 Gerber Generator version 0.2*
G04 Scale: 100 percent, Rotated: No, Reflected: No *
G04 Dimensions in millimeters *
G04 leading zeros omitted , absolute positions ,4 integer and 5 decimal *
%FSLAX45Y45*%
%MOMM*%

%AMMACRO1*4,1,8,-0.7262,-0.7258,-0.7559,-0.6958,-0.7559,0.6961,-0.7262,0.7258,0.7259,0.7258,0.7559,0.6961,0.7559,-0.6958,0.7259,-0.7258,-0.7262,-0.7258,0*%
%AMMACRO2*4,1,8,-0.7261,-0.7258,-0.7558,-0.6958,-0.7558,0.6961,-0.7261,0.7258,0.7258,0.7258,0.7558,0.6961,0.7558,-0.6958,0.7258,-0.7258,-0.7261,-0.7258,0*%
%AMMACRO3*4,1,8,-0.4211,-0.5008,-0.4508,-0.4708,-0.4508,0.471,-0.4211,0.5008,0.4209,0.5008,0.4508,0.471,0.4508,-0.4708,0.4209,-0.5008,-0.4211,-0.5008,0*%
%AMMACRO4*4,1,8,-0.4712,-0.4507,-0.5009,-0.4208,-0.5009,0.421,-0.4712,0.4507,0.4709,0.4507,0.5009,0.421,0.5009,-0.4208,0.4709,-0.4507,-0.4712,-0.4507,0*%
%AMMACRO5*4,1,8,-0.7635,-0.9148,-0.7932,-0.8848,-0.7932,0.8851,-0.7635,0.9148,0.7633,0.9148,0.7932,0.8851,0.7932,-0.8848,0.7633,-0.9148,-0.7635,-0.9148,0*%
%AMMACRO6*4,1,8,-0.7637,-0.9148,-0.7934,-0.8848,-0.7934,0.8851,-0.7637,0.9148,0.7634,0.9148,0.7934,0.8851,0.7934,-0.8848,0.7634,-0.9148,-0.7637,-0.9148,0*%
%AMMACRO7*4,1,8,-0.8851,-0.7932,-0.9148,-0.7633,-0.9148,0.7635,-0.8851,0.7932,0.8848,0.7932,0.9148,0.7635,0.9148,-0.7633,0.8848,-0.7932,-0.8851,-0.7932,0*%
%AMMACRO8*4,1,8,-0.5211,-1.5008,-0.5508,-1.4708,-0.5508,1.471,-0.5211,1.5008,0.5208,1.5008,0.5508,1.471,0.5508,-1.4708,0.5208,-1.5008,-0.5211,-1.5008,0*%
%AMMACRO9*4,1,8,-0.3212,-0.9008,-0.3509,-0.8708,-0.3509,0.8711,-0.3212,0.9008,0.3209,0.9008,0.3509,0.8711,0.3509,-0.8708,0.3209,-0.9008,-0.3212,-0.9008,0*%
%AMMACRO10*4,1,8,-0.3211,-0.9008,-0.3508,-0.8708,-0.3508,0.8711,-0.3211,0.9008,0.3208,0.9008,0.3508,0.8711,0.3508,-0.8708,0.3208,-0.9008,-0.3211,-0.9008,0*%
%AMMACRO11*4,1,8,-0.6711,-1.5009,-0.7008,-1.4709,-0.7008,1.4712,-0.6711,1.5009,0.6708,1.5009,0.7008,1.4712,0.7008,-1.4709,0.6708,-1.5009,-0.6711,-1.5009,0*%
%AMMACRO12*4,1,8,-0.6248,-0.9013,-0.6546,-0.8713,-0.6546,0.8716,-0.6248,0.9013,0.6246,0.9013,0.6546,0.8716,0.6546,-0.8713,0.6246,-0.9013,-0.6248,-0.9013,0*%
%AMMACRO13*4,1,8,-0.6212,-0.3258,-0.6509,-0.2958,-0.6509,0.296,-0.6212,0.3258,0.6209,0.3258,0.6509,0.296,0.6509,-0.2958,0.6209,-0.3258,-0.6212,-0.3258,0*%
%AMMACRO14*4,1,8,-0.1958,-0.475,-0.225,-0.4455,-0.225,0.4458,-0.1958,0.475,0.1956,0.475,0.225,0.4458,0.225,-0.4455,0.1956,-0.475,-0.1958,-0.475,0*%
%AMMACRO15*4,1,8,-1.421,-1.4507,-1.4507,-1.4207,-1.4507,1.421,-1.421,1.4507,1.4207,1.4507,1.4507,1.421,1.4507,-1.4207,1.4207,-1.4507,-1.421,-1.4507,0*%
%AMMACRO16*4,1,8,-1.0211,-0.5508,-1.0508,-0.5208,-1.0508,0.5211,-1.0211,0.5508,1.0208,0.5508,1.0508,0.5211,1.0508,-0.5208,1.0208,-0.5508,-1.0211,-0.5508,0*%
%AMMACRO17*4,1,8,-1.5213,-1.0511,-1.5511,-1.0211,-1.5511,1.0213,-1.5213,1.0511,1.5211,1.0511,1.5511,1.0213,1.5511,-1.0211,1.5211,-1.0511,-1.5213,-1.0511,0*%
%AMMACRO18*4,1,8,-0.4211,-0.7008,-0.4508,-0.6708,-0.4508,0.6711,-0.4211,0.7008,0.4209,0.7008,0.4508,0.6711,0.4508,-0.6708,0.4209,-0.7008,-0.4211,-0.7008,0*%
%AMMACRO19*4,1,8,-0.4211,-0.7008,-0.4509,-0.6708,-0.4509,0.6711,-0.4211,0.7008,0.4209,0.7008,0.4509,0.6711,0.4509,-0.6708,0.4209,-0.7008,-0.4211,-0.7008,0*%
%AMMACRO20*4,1,8,-0.6248,-0.9012,-0.6546,-0.8712,-0.6546,0.8715,-0.6248,0.9012,0.6246,0.9012,0.6546,0.8715,0.6546,-0.8712,0.6246,-0.9012,-0.6248,-0.9012,0*%
%ADD10MACRO1*%
%ADD11MACRO2*%
%ADD12MACRO3*%
%ADD13MACRO4*%
%ADD14MACRO5*%
%ADD15MACRO6*%
%ADD16MACRO7*%
%ADD17C,0.0158*%
%ADD18MACRO8*%
%ADD19MACRO9*%
%ADD20MACRO10*%
%ADD21MACRO11*%
%ADD22MACRO12*%
%ADD23MACRO13*%
%ADD24MACRO14*%
%ADD25MACRO15*%
%ADD26MACRO16*%
%ADD27MACRO17*%
%ADD28C,1.2446*%
%ADD29MACRO18*%
%ADD30MACRO19*%
%ADD31MACRO20*%

%LPD*%
D10*
G01*
X382600Y812812D03*
D11*
G01*
X582612Y812812D03*
D12*
G01*
X450697Y1054112D03*
G01*
X590702Y1054112D03*
G01*
X653897Y1638312D03*
G01*
X793902Y1638312D03*
D13*
G01*
X2755900Y5264315D03*
G01*
X2755900Y5124310D03*
D14*
G01*
X1162557Y1054112D03*
D15*
G01*
X844054Y1054112D03*
D14*
G01*
X1162557Y800112D03*
D15*
G01*
X844054Y800112D03*
D16*
G01*
X2743212Y3218967D03*
G01*
X2743212Y3537457D03*
D18*
G01*
X941412Y1409712D03*
G01*
X1141412Y1409712D03*
D19*
G01*
X1563103Y553707D03*
D20*
G01*
X1688109Y553707D03*
D21*
G01*
X1873097Y233705D03*
G01*
X1378102Y233705D03*
D19*
G01*
X2528303Y553707D03*
D20*
G01*
X2653309Y553707D03*
D21*
G01*
X2838297Y233705D03*
G01*
X2343302Y233705D03*
D19*
G01*
X521703Y553707D03*
D20*
G01*
X646709Y553707D03*
D21*
G01*
X831697Y233705D03*
G01*
X336702Y233705D03*
D22*
G01*
X2725978Y1104912D03*
G01*
X2430221Y1104912D03*
G01*
X2725978Y1371612D03*
G01*
X2430221Y1371612D03*
G01*
X2725978Y2133612D03*
G01*
X2430221Y2133612D03*
G01*
X2725978Y2400312D03*
G01*
X2430221Y2400312D03*
G01*
X2078278Y3251212D03*
G01*
X1782521Y3251212D03*
G01*
X2078278Y2933712D03*
G01*
X1782521Y2933712D03*
D23*
G01*
X691502Y1453908D03*
G01*
X691502Y1263916D03*
G01*
X451497Y1263916D03*
G01*
X451497Y1358912D03*
G01*
X451497Y1453908D03*
G01*
X691502Y1358912D03*
D24*
G01*
X684301Y1960118D03*
G01*
X749300Y1960118D03*
G01*
X814298Y1960118D03*
G01*
X814298Y2180107D03*
G01*
X749300Y2180107D03*
G01*
X684301Y2180107D03*
D25*
G01*
X1888299Y4495812D03*
D26*
G01*
X1193800Y4787887D03*
G01*
X1193800Y4597412D03*
D27*
G01*
X808291Y5321325D03*
G01*
X808291Y5067325D03*
G01*
X808291Y4813325D03*
G01*
X808291Y4559325D03*
G01*
X808291Y4305325D03*
G01*
X808291Y4051325D03*
G01*
X808291Y3797325D03*
G01*
X2468283Y3797325D03*
G01*
X2468283Y4051325D03*
G01*
X2468283Y4305325D03*
G01*
X2468283Y4559325D03*
G01*
X2468283Y4813325D03*
G01*
X2468283Y5067325D03*
G01*
X2468283Y5321325D03*
D28*
G01*
X1765274Y5422900D03*
G01*
X1765274Y5168900D03*
G01*
X1511274Y5168900D03*
G01*
X1511274Y5422900D03*
G01*
X1511300Y4914900D03*
G01*
X1765300Y4914900D03*
D29*
G01*
X2197100Y1430248D03*
G01*
X1943099Y1430248D03*
G01*
X2197100Y881151D03*
G01*
X1943099Y881151D03*
D30*
G01*
X1689100Y1430248D03*
G01*
X1435100Y1430248D03*
G01*
X1689100Y881151D03*
G01*
X1435100Y881151D03*
D29*
G01*
X2209800Y2535148D03*
G01*
X1955799Y2535148D03*
G01*
X2209800Y1986051D03*
G01*
X1955799Y1986051D03*
D30*
G01*
X1689100Y2535148D03*
G01*
X1435100Y2535148D03*
G01*
X1689100Y1986051D03*
G01*
X1435100Y1986051D03*
G01*
X1346200Y3297148D03*
G01*
X1092200Y3297148D03*
G01*
X1346200Y2748051D03*
G01*
X1092200Y2748051D03*
G01*
X787400Y3297148D03*
G01*
X533400Y3297148D03*
G01*
X787400Y2748051D03*
G01*
X533400Y2748051D03*
D31*
G01*
X1100378Y2514600D03*
G01*
X804621Y2514600D03*
G01*
X1963978Y1765300D03*
G01*
X1668221Y1765300D03*
M02*
