G04 Layer: TopPasteMaskLayer*
G04 EasyEDA v6.5.51, 2026-09-25 11:00:27*
G04 aefef3df197f448ab4cbd56205182360,c088ded6e3c04853ab2496fc10f77cd9,10*
G04 Gerber Generator version 0.2*
G04 Scale: 100 percent, Rotated: No, Reflected: No *
G04 Dimensions in millimeters *
G04 leading zeros omitted , absolute positions ,4 integer and 5 decimal *
%FSLAX45Y45*%
%MOMM*%

%AMMACRO1*21,1,$1,$2,0,0,$3*%
%ADD10R,0.8000X0.9000*%
%ADD11R,0.9000X0.8000*%
%ADD12MACRO1,1X2.8999X0.0000*%
%ADD13R,0.6000X1.7000*%
%ADD14R,1.3000X2.9000*%
%ADD15R,1.2000X0.5500*%
%ADD16R,0.0142X0.5500*%
%ADD17R,0.3500X0.8500*%
%ADD18R,2.8000X2.8000*%
%ADD19R,2.0000X1.0000*%
%ADD20R,3.0000X2.0000*%
%ADD21C,1.1430*%
%ADD22R,0.8000X1.3000*%

%LPD*%
G36*
X533095Y881837D02*
G01*
X528116Y876808D01*
X528574Y834796D01*
X572617Y834796D01*
X572617Y789838D01*
X527608Y789838D01*
X528116Y748842D01*
X533095Y743813D01*
X648106Y743813D01*
X653084Y748842D01*
X653084Y876808D01*
X648106Y881837D01*
G37*
G36*
X317093Y881837D02*
G01*
X312115Y876808D01*
X312115Y748792D01*
X317093Y743813D01*
X432104Y743813D01*
X437083Y748792D01*
X436626Y790803D01*
X392582Y790803D01*
X392582Y835812D01*
X437591Y835812D01*
X437083Y876808D01*
X432104Y881837D01*
G37*
G36*
X1098296Y1140510D02*
G01*
X1088288Y1130503D01*
X1088288Y1093470D01*
X1098296Y1083513D01*
X1128776Y1083513D01*
X1138783Y1073505D01*
X1138783Y1034745D01*
X1128776Y1024737D01*
X1098296Y1024737D01*
X1088288Y1014730D01*
X1088288Y977696D01*
X1098296Y967740D01*
X1226820Y967740D01*
X1236827Y977696D01*
X1236827Y1130503D01*
X1226820Y1140510D01*
G37*
G36*
X779780Y1140510D02*
G01*
X769823Y1130503D01*
X769823Y977696D01*
X779780Y967740D01*
X908303Y967740D01*
X918311Y977696D01*
X918311Y1014730D01*
X908303Y1024737D01*
X877824Y1024737D01*
X867816Y1034745D01*
X867816Y1073505D01*
X877824Y1083513D01*
X908303Y1083513D01*
X918311Y1093470D01*
X918311Y1130503D01*
X908303Y1140510D01*
G37*
G36*
X1098296Y886510D02*
G01*
X1088288Y876503D01*
X1088288Y839469D01*
X1098296Y829513D01*
X1128776Y829513D01*
X1138783Y819505D01*
X1138783Y780745D01*
X1128776Y770737D01*
X1098296Y770737D01*
X1088288Y760730D01*
X1088288Y723696D01*
X1098296Y713740D01*
X1226820Y713740D01*
X1236827Y723696D01*
X1236827Y876503D01*
X1226820Y886510D01*
G37*
G36*
X779780Y886510D02*
G01*
X769823Y876503D01*
X769823Y723696D01*
X779780Y713740D01*
X908303Y713740D01*
X918311Y723696D01*
X918311Y760730D01*
X908303Y770737D01*
X877824Y770737D01*
X867816Y780745D01*
X867816Y819505D01*
X877824Y829513D01*
X908303Y829513D01*
X918311Y839469D01*
X918311Y876503D01*
X908303Y886510D01*
G37*
G36*
X2666796Y3293211D02*
G01*
X2656789Y3283204D01*
X2656789Y3154730D01*
X2666796Y3144723D01*
X2819603Y3144723D01*
X2829610Y3154730D01*
X2829610Y3283204D01*
X2819603Y3293211D01*
X2782570Y3293211D01*
X2772562Y3283204D01*
X2772562Y3252724D01*
X2762554Y3242716D01*
X2723845Y3242716D01*
X2713837Y3252724D01*
X2713837Y3283204D01*
X2703830Y3293211D01*
G37*
G36*
X2666796Y3611727D02*
G01*
X2656789Y3601720D01*
X2656789Y3473196D01*
X2666796Y3463239D01*
X2703830Y3463239D01*
X2713837Y3473196D01*
X2713837Y3503726D01*
X2723845Y3513683D01*
X2762554Y3513683D01*
X2772562Y3503726D01*
X2772562Y3473196D01*
X2782570Y3463239D01*
X2819603Y3463239D01*
X2829610Y3473196D01*
X2829610Y3601720D01*
X2819603Y3611727D01*
G37*
G36*
X2675585Y1189990D02*
G01*
X2665577Y1179982D01*
X2665577Y1143812D01*
X2675585Y1133856D01*
X2696667Y1133856D01*
X2706674Y1123848D01*
X2706674Y1086002D01*
X2696667Y1075994D01*
X2675585Y1075994D01*
X2665577Y1065987D01*
X2665577Y1029868D01*
X2675585Y1019860D01*
X2776372Y1019860D01*
X2786329Y1029868D01*
X2786329Y1179982D01*
X2776372Y1189990D01*
G37*
G36*
X2379827Y1189990D02*
G01*
X2369870Y1179982D01*
X2369870Y1029868D01*
X2379827Y1019860D01*
X2480614Y1019860D01*
X2490622Y1029868D01*
X2490622Y1065987D01*
X2480614Y1075994D01*
X2459532Y1075994D01*
X2449525Y1086002D01*
X2449525Y1123848D01*
X2459532Y1133856D01*
X2480614Y1133856D01*
X2490622Y1143812D01*
X2490622Y1179982D01*
X2480614Y1189990D01*
G37*
G36*
X2675585Y1456690D02*
G01*
X2665577Y1446682D01*
X2665577Y1410512D01*
X2675585Y1400556D01*
X2696667Y1400556D01*
X2706674Y1390548D01*
X2706674Y1352702D01*
X2696667Y1342694D01*
X2675585Y1342694D01*
X2665577Y1332687D01*
X2665577Y1296568D01*
X2675585Y1286560D01*
X2776372Y1286560D01*
X2786329Y1296568D01*
X2786329Y1446682D01*
X2776372Y1456690D01*
G37*
G36*
X2379827Y1456690D02*
G01*
X2369870Y1446682D01*
X2369870Y1296568D01*
X2379827Y1286560D01*
X2480614Y1286560D01*
X2490622Y1296568D01*
X2490622Y1332687D01*
X2480614Y1342694D01*
X2459532Y1342694D01*
X2449525Y1352702D01*
X2449525Y1390548D01*
X2459532Y1400556D01*
X2480614Y1400556D01*
X2490622Y1410512D01*
X2490622Y1446682D01*
X2480614Y1456690D01*
G37*
G36*
X2675585Y2218690D02*
G01*
X2665577Y2208682D01*
X2665577Y2172512D01*
X2675585Y2162556D01*
X2696667Y2162556D01*
X2706674Y2152548D01*
X2706674Y2114702D01*
X2696667Y2104694D01*
X2675585Y2104694D01*
X2665577Y2094687D01*
X2665577Y2058568D01*
X2675585Y2048560D01*
X2776372Y2048560D01*
X2786329Y2058568D01*
X2786329Y2208682D01*
X2776372Y2218690D01*
G37*
G36*
X2379827Y2218690D02*
G01*
X2369870Y2208682D01*
X2369870Y2058568D01*
X2379827Y2048560D01*
X2480614Y2048560D01*
X2490622Y2058568D01*
X2490622Y2094687D01*
X2480614Y2104694D01*
X2459532Y2104694D01*
X2449525Y2114702D01*
X2449525Y2152548D01*
X2459532Y2162556D01*
X2480614Y2162556D01*
X2490622Y2172512D01*
X2490622Y2208682D01*
X2480614Y2218690D01*
G37*
G36*
X2675585Y2485390D02*
G01*
X2665577Y2475382D01*
X2665577Y2439212D01*
X2675585Y2429256D01*
X2696667Y2429256D01*
X2706674Y2419248D01*
X2706674Y2381402D01*
X2696667Y2371394D01*
X2675585Y2371394D01*
X2665577Y2361387D01*
X2665577Y2325268D01*
X2675585Y2315260D01*
X2776372Y2315260D01*
X2786329Y2325268D01*
X2786329Y2475382D01*
X2776372Y2485390D01*
G37*
G36*
X2379827Y2485390D02*
G01*
X2369870Y2475382D01*
X2369870Y2325268D01*
X2379827Y2315260D01*
X2480614Y2315260D01*
X2490622Y2325268D01*
X2490622Y2361387D01*
X2480614Y2371394D01*
X2459532Y2371394D01*
X2449525Y2381402D01*
X2449525Y2419248D01*
X2459532Y2429256D01*
X2480614Y2429256D01*
X2490622Y2439212D01*
X2490622Y2475382D01*
X2480614Y2485390D01*
G37*
G36*
X2027885Y3336290D02*
G01*
X2017877Y3326282D01*
X2017877Y3290112D01*
X2027885Y3280156D01*
X2048967Y3280156D01*
X2058974Y3270148D01*
X2058974Y3232302D01*
X2048967Y3222294D01*
X2027885Y3222294D01*
X2017877Y3212287D01*
X2017877Y3176168D01*
X2027885Y3166160D01*
X2128672Y3166160D01*
X2138629Y3176168D01*
X2138629Y3326282D01*
X2128672Y3336290D01*
G37*
G36*
X1732127Y3336290D02*
G01*
X1722170Y3326282D01*
X1722170Y3176168D01*
X1732127Y3166160D01*
X1832914Y3166160D01*
X1842922Y3176168D01*
X1842922Y3212287D01*
X1832914Y3222294D01*
X1811832Y3222294D01*
X1801825Y3232302D01*
X1801825Y3270148D01*
X1811832Y3280156D01*
X1832914Y3280156D01*
X1842922Y3290112D01*
X1842922Y3326282D01*
X1832914Y3336290D01*
G37*
G36*
X2027885Y3018790D02*
G01*
X2017877Y3008782D01*
X2017877Y2972612D01*
X2027885Y2962656D01*
X2048967Y2962656D01*
X2058974Y2952648D01*
X2058974Y2914802D01*
X2048967Y2904794D01*
X2027885Y2904794D01*
X2017877Y2894787D01*
X2017877Y2858668D01*
X2027885Y2848660D01*
X2128672Y2848660D01*
X2138629Y2858668D01*
X2138629Y3008782D01*
X2128672Y3018790D01*
G37*
G36*
X1732127Y3018790D02*
G01*
X1722170Y3008782D01*
X1722170Y2858668D01*
X1732127Y2848660D01*
X1832914Y2848660D01*
X1842922Y2858668D01*
X1842922Y2894787D01*
X1832914Y2904794D01*
X1811832Y2904794D01*
X1801825Y2914802D01*
X1801825Y2952648D01*
X1811832Y2962656D01*
X1832914Y2962656D01*
X1842922Y2972612D01*
X1842922Y3008782D01*
X1832914Y3018790D01*
G37*
G36*
X1049985Y2599639D02*
G01*
X1039977Y2589631D01*
X1039977Y2553512D01*
X1049985Y2543505D01*
X1071067Y2543505D01*
X1081074Y2533497D01*
X1081074Y2495702D01*
X1071067Y2485694D01*
X1049985Y2485694D01*
X1039977Y2475687D01*
X1039977Y2439568D01*
X1049985Y2429560D01*
X1150772Y2429560D01*
X1160729Y2439568D01*
X1160729Y2589631D01*
X1150772Y2599639D01*
G37*
G36*
X754227Y2599639D02*
G01*
X744270Y2589631D01*
X744270Y2439568D01*
X754227Y2429560D01*
X855014Y2429560D01*
X865022Y2439568D01*
X865022Y2475687D01*
X855014Y2485694D01*
X833932Y2485694D01*
X823925Y2495702D01*
X823925Y2533497D01*
X833932Y2543505D01*
X855014Y2543505D01*
X865022Y2553512D01*
X865022Y2589631D01*
X855014Y2599639D01*
G37*
G36*
X1913585Y1850339D02*
G01*
X1903577Y1840331D01*
X1903577Y1804212D01*
X1913585Y1794205D01*
X1934667Y1794205D01*
X1944674Y1784197D01*
X1944674Y1746402D01*
X1934667Y1736394D01*
X1913585Y1736394D01*
X1903577Y1726387D01*
X1903577Y1690268D01*
X1913585Y1680260D01*
X2014372Y1680260D01*
X2024329Y1690268D01*
X2024329Y1840331D01*
X2014372Y1850339D01*
G37*
G36*
X1617827Y1850339D02*
G01*
X1607870Y1840331D01*
X1607870Y1690268D01*
X1617827Y1680260D01*
X1718614Y1680260D01*
X1728622Y1690268D01*
X1728622Y1726387D01*
X1718614Y1736394D01*
X1697532Y1736394D01*
X1687525Y1746402D01*
X1687525Y1784197D01*
X1697532Y1794205D01*
X1718614Y1794205D01*
X1728622Y1804212D01*
X1728622Y1840331D01*
X1718614Y1850339D01*
G37*
D10*
G01*
X450697Y1054125D03*
G01*
X590702Y1054125D03*
G01*
X653897Y1638325D03*
G01*
X793902Y1638325D03*
D11*
G01*
X2755900Y5264302D03*
G01*
X2755900Y5124322D03*
D12*
G01*
X941412Y1409712D03*
G01*
X1141412Y1409712D03*
D13*
G01*
X1563115Y553720D03*
G01*
X1688109Y553720D03*
D14*
G01*
X1873097Y233705D03*
G01*
X1378102Y233705D03*
D13*
G01*
X2528315Y553720D03*
G01*
X2653309Y553720D03*
D14*
G01*
X2838297Y233705D03*
G01*
X2343302Y233705D03*
D13*
G01*
X521715Y553720D03*
G01*
X646709Y553720D03*
D14*
G01*
X831697Y233705D03*
G01*
X336702Y233705D03*
D15*
G01*
X691514Y1453921D03*
G01*
X691514Y1263929D03*
G01*
X451510Y1263929D03*
G01*
X451510Y1358925D03*
G01*
X451510Y1453921D03*
G01*
X691514Y1358925D03*
D17*
G01*
X684301Y1960118D03*
G01*
X749300Y1960118D03*
G01*
X814298Y1960118D03*
G01*
X814298Y2180107D03*
G01*
X749300Y2180107D03*
G01*
X684301Y2180107D03*
D18*
G01*
X1888286Y4495825D03*
D19*
G01*
X1193800Y4787900D03*
G01*
X1193800Y4597400D03*
D20*
G01*
X808304Y5321325D03*
G01*
X808304Y5067325D03*
G01*
X808304Y4813325D03*
G01*
X808304Y4559325D03*
G01*
X808304Y4305325D03*
G01*
X808304Y4051325D03*
G01*
X808304Y3797325D03*
G01*
X2468295Y3797325D03*
G01*
X2468295Y4051325D03*
G01*
X2468295Y4305325D03*
G01*
X2468295Y4559325D03*
G01*
X2468295Y4813325D03*
G01*
X2468295Y5067325D03*
G01*
X2468295Y5321325D03*
D21*
G01*
X1765274Y5422900D03*
G01*
X1765274Y5168900D03*
G01*
X1511274Y5168900D03*
G01*
X1511274Y5422900D03*
G01*
X1511300Y4914900D03*
G01*
X1765300Y4914900D03*
D22*
G01*
X2197100Y1430248D03*
G01*
X1943100Y1430248D03*
G01*
X2197100Y881151D03*
G01*
X1943100Y881151D03*
G01*
X1689100Y1430248D03*
G01*
X1435100Y1430248D03*
G01*
X1689100Y881151D03*
G01*
X1435100Y881151D03*
G01*
X2209800Y2535148D03*
G01*
X1955800Y2535148D03*
G01*
X2209800Y1986051D03*
G01*
X1955800Y1986051D03*
G01*
X1689100Y2535148D03*
G01*
X1435100Y2535148D03*
G01*
X1689100Y1986051D03*
G01*
X1435100Y1986051D03*
G01*
X1346200Y3297148D03*
G01*
X1092200Y3297148D03*
G01*
X1346200Y2748051D03*
G01*
X1092200Y2748051D03*
G01*
X787400Y3297148D03*
G01*
X533400Y3297148D03*
G01*
X787400Y2748051D03*
G01*
X533400Y2748051D03*
M02*
